<?xml version="1.0" encoding="UTF-8"?>
<svg id="Layer_2" data-name="Layer 2" xmlns="http://www.w3.org/2000/svg" viewBox="0 0 24 22.64">
  <defs>
    <style>
      .cls-1 {
        fill: #727272;
      }
    </style>
  </defs>
  <g id="Layer_1-2" data-name="Layer 1">
    <g>
      <path class="cls-1" d="M21.56,22.54C17.52,15.03,13.48,7.54,9.42,0c.54,0,1.02,0,1.51,0,.85,0,1.71,0,2.56,0,.64,0,1.21.22,1.71.61.2.16.35.43.48.67.57,1.02,1.13,2.05,1.68,3.08.55,1.03,1.09,2.07,1.63,3.1.15.28.32.55.47.83.7,1.31,1.39,2.63,2.08,3.94.41.78.81,1.56,1.22,2.33.27.51.55,1.02.84,1.52.55.95.49,1.89-.02,2.83-.5.92-1.01,1.84-1.52,2.75-.16.3-.33.59-.51.87Z"/>
      <path class="cls-1" d="M3.1,22.34c-.6-.32-.95-.82-1.24-1.44-.41-.9-.94-1.74-1.42-2.61-.14-.26-.28-.52-.44-.83.11-.01.18-.02.25-.02,4.8,0,9.61,0,14.41,0,.18,0,.27.06.35.22.28.57.56,1.14.86,1.7.51.94,1.04,1.86,1.56,2.79.08.14.12.3.2.49h-.33c-4.3,0-8.59,0-12.89,0-.45,0-.88-.07-1.31-.3Z"/>
      <path class="cls-1" d="M4.2,13.78H1.98c1.82-3.38,3.63-6.73,5.46-10.12,1.82,3.37,3.63,6.73,5.45,10.12H4.2Z"/>
    </g>
  </g>
</svg>